<?xml version="1.0" standalone="no"?>
<!DOCTYPE svg PUBLIC "-//W3C//DTD SVG 20010904//EN"
 "http://www.w3.org/TR/2001/REC-SVG-20010904/DTD/svg10.dtd">
<svg version="1.0" xmlns="http://www.w3.org/2000/svg"
 width="691.000000pt" height="160.000000pt" viewBox="0 0 691.000000 160.000000"
 preserveAspectRatio="xMidYMid meet">

<g transform="translate(0.000000,160.000000) scale(0.100000,-0.100000)"
fill="#000000" stroke="none">
<path d="M495 1160 l-340 -340 338 -338 338 -338 112 113 111 113 -107 108
c-59 59 -107 112 -107 117 0 6 50 60 110 120 l110 110 -112 112 -113 113 113
113 112 112 -113 113 -112 112 -340 -340z"/>
<path d="M5598 1229 c-126 -18 -243 -110 -289 -227 -19 -47 -23 -76 -23 -167
0 -125 19 -189 79 -268 129 -169 436 -183 570 -25 36 42 73 123 77 168 l3 35
-97 3 -97 3 -12 -41 c-44 -145 -228 -149 -300 -7 -44 86 -31 237 26 306 74 88
231 74 266 -24 l13 -35 98 0 c112 0 110 -2 78 83 -53 140 -214 221 -392 196z"/>
<path d="M1390 835 l0 -385 100 0 100 0 0 150 0 150 155 0 155 0 0 75 0 75
-155 0 -155 0 0 75 0 75 180 0 180 0 0 85 0 85 -280 0 -280 0 0 -385z"/>
<path d="M2000 1135 l0 -85 540 0 540 0 0 85 0 85 -540 0 -540 0 0 -85z"/>
<path d="M3130 834 l0 -386 223 4 c264 5 291 12 378 98 78 77 94 127 94 290
-1 113 -3 130 -27 181 -47 103 -139 169 -265 189 -32 6 -136 10 -230 10 l-173
0 0 -386z m398 195 c65 -32 96 -85 100 -173 9 -170 -45 -231 -213 -243 l-85
-6 0 222 0 221 77 0 c58 0 88 -5 121 -21z"/>
<path d="M3880 835 l0 -386 258 3 257 3 48 28 c71 42 101 94 105 183 4 62 1
79 -19 114 -13 22 -39 51 -59 62 -19 12 -36 22 -38 23 -1 1 13 18 32 37 60 60
69 154 22 226 -12 19 -44 44 -76 60 -54 27 -57 27 -292 30 l-238 4 0 -387z
m418 209 c30 -21 31 -83 1 -110 -16 -15 -40 -19 -120 -22 l-99 -4 0 76 0 76
98 0 c72 0 103 -4 120 -16z m26 -285 c21 -16 26 -29 26 -64 0 -35 -5 -48 -26
-64 -23 -18 -41 -21 -135 -21 l-109 0 0 85 0 85 109 0 c94 0 112 -3 135 -21z"/>
<path d="M4672 842 c-78 -208 -142 -382 -142 -385 0 -4 45 -7 99 -7 l100 0 21
58 c11 31 23 63 25 70 3 9 40 12 138 12 l134 0 24 -70 24 -70 102 0 c57 0 103
1 103 3 0 1 -64 173 -143 382 l-142 380 -101 3 -100 3 -142 -379z m322 -89 c7
-23 6 -23 -78 -23 -62 0 -86 3 -86 12 0 7 19 69 42 138 l42 125 37 -115 c20
-63 39 -125 43 -137z"/>
<path d="M6067 1213 c-4 -3 -7 -177 -7 -385 l0 -378 100 0 100 0 0 118 0 118
43 42 43 43 103 -161 102 -160 124 0 125 0 -77 113 c-43 61 -115 166 -160 231
l-82 119 69 76 c37 42 82 90 100 106 18 17 50 51 72 78 l40 47 -121 0 -120 0
-128 -146 -128 -146 -3 146 -3 146 -93 0 c-51 0 -96 -3 -99 -7z"/>
<path d="M2000 830 l0 -80 540 0 540 0 0 80 0 80 -540 0 -540 0 0 -80z"/>
<path d="M2000 520 l0 -80 540 0 540 0 0 80 0 80 -540 0 -540 0 0 -80z"/>
</g>
</svg>
