<svg width="176" height="36" viewBox="0 0 176 36" fill="none" xmlns="http://www.w3.org/2000/svg">
<path d="M17.958 36L0 18.042L18.042 0L24.0369 5.99494L18.0513 11.9806L24.0311 17.958L18.0455 23.9436L23.9634 29.8639L17.958 36Z" fill="#FF272B"/>
<path d="M47.3913 7.55582H32.5049V27.8539H37.7976V20.0018H46.1186V15.8535H37.7976V12.0039H47.3913V7.55582Z" fill="black"/>
<path d="M78.3413 27.8691H86.7405C93.4844 27.8691 96.9841 24.4266 96.9841 17.6255C96.9841 11.2515 93.2511 7.60947 87.0252 7.60947H78.346L78.3413 27.8691ZM83.606 23.4595V11.9922H86.1386C89.7549 11.9922 91.6587 14.0979 91.6587 17.769C91.6587 21.3259 90.0652 23.4607 86.5084 23.4607L83.606 23.4595Z" fill="black"/>
<path d="M98.2383 27.8691H108.084C110.276 27.8691 112.238 27.8119 113.975 26.3327C114.626 25.7718 115.143 25.0718 115.488 24.2844C115.833 23.497 115.996 22.6422 115.966 21.7832C116.033 20.6591 115.706 19.5468 115.042 18.6378C114.377 17.7289 113.416 17.0801 112.324 16.8031C113.131 16.4714 113.816 15.9012 114.289 15.169C114.762 14.4368 115 13.5774 114.971 12.7062C114.971 8.94985 111.927 7.61298 108.427 7.61298H98.2383V27.8691ZM103.417 15.5759V11.6504H107.059C108.482 11.6504 109.819 11.9351 109.819 13.6138C109.819 14.9798 108.994 15.5771 107.201 15.5771L103.417 15.5759ZM103.417 23.6858V19.0487H107.454C109.105 19.0487 110.613 19.4185 110.613 21.3819C110.613 23.3743 109.19 23.687 107.596 23.687L103.417 23.6858Z" fill="black"/>
<path d="M128.075 7.60947H122.721L115.126 27.8691H120.532L121.87 24.1699H128.87L130.175 27.8691H135.638L128.075 7.60947ZM127.676 20.3576H123.059L125.392 13.2918L127.676 20.3576Z" fill="black"/>
<path d="M149.163 19.9586C148.793 22.5484 147.427 23.8573 145.094 23.8573C142.22 23.8573 140.343 21.467 140.343 17.7912C140.343 14.0069 142.193 11.5594 145.094 11.5594C146.044 11.4751 146.99 11.7588 147.737 12.3519C148.483 12.945 148.973 13.8022 149.106 14.7465H154.314C153.944 9.93791 149.731 7.12067 145.208 7.12067C139.175 7.12067 134.992 11.4463 134.992 17.678C134.992 23.7955 138.833 28.3485 145.122 28.3485C149.134 28.3485 151.894 26.783 153.488 23.54C154.119 22.4513 154.443 21.2122 154.427 19.954L149.163 19.9586Z" fill="black"/>
<path d="M174.155 7.60947H167.609L160.843 15.3519V7.60947H155.663V27.8691H160.899V21.6093L163.059 19.3614L168.522 27.8691H175.096L166.644 15.5479L174.155 7.60947Z" fill="black"/>
<path d="M48.7026 7.55582V12.0004H76.8972V7.55582H48.7026Z" fill="black"/>
<path d="M48.7026 15.8535H76.8972V20.0018H48.7026V15.8535Z" fill="black"/>
<path d="M48.7026 23.8549H76.8972V27.8551H48.7026V23.8549Z" fill="black"/>
</svg>
